%TF.GenerationSoftware,KiCad,Pcbnew,(5.1.7)-1*%
%TF.CreationDate,2022-10-27T22:03:01+03:00*%
%TF.ProjectId,wien_osc,7769656e-5f6f-4736-932e-6b696361645f,rev?*%
%TF.SameCoordinates,Original*%
%TF.FileFunction,Legend,Top*%
%TF.FilePolarity,Positive*%
%FSLAX46Y46*%
G04 Gerber Fmt 4.6, Leading zero omitted, Abs format (unit mm)*
G04 Created by KiCad (PCBNEW (5.1.7)-1) date 2022-10-27 22:03:01*
%MOMM*%
%LPD*%
G01*
G04 APERTURE LIST*
%ADD10C,0.120000*%
%ADD11C,0.150000*%
G04 APERTURE END LIST*
D10*
%TO.C,LM741*%
X156275280Y-95357640D02*
G75*
G02*
X154275280Y-95357640I-1000000J0D01*
G01*
X154275280Y-95357640D02*
X152740280Y-95357640D01*
X152740280Y-95357640D02*
X152740280Y-105637640D01*
X152740280Y-105637640D02*
X157810280Y-105637640D01*
X157810280Y-105637640D02*
X157810280Y-95357640D01*
X157810280Y-95357640D02*
X156275280Y-95357640D01*
X149040280Y-95297640D02*
X149040280Y-105697640D01*
X149040280Y-105697640D02*
X161510280Y-105697640D01*
X161510280Y-105697640D02*
X161510280Y-95297640D01*
X161510280Y-95297640D02*
X149040280Y-95297640D01*
%TO.C,2100 ohm*%
X158880560Y-91118360D02*
X158880560Y-88378360D01*
X158880560Y-88378360D02*
X152340560Y-88378360D01*
X152340560Y-88378360D02*
X152340560Y-91118360D01*
X152340560Y-91118360D02*
X158880560Y-91118360D01*
X159650560Y-89748360D02*
X158880560Y-89748360D01*
X151570560Y-89748360D02*
X152340560Y-89748360D01*
%TO.C,1k ohm*%
X142962960Y-101240340D02*
X145702960Y-101240340D01*
X145702960Y-101240340D02*
X145702960Y-94700340D01*
X145702960Y-94700340D02*
X142962960Y-94700340D01*
X142962960Y-94700340D02*
X142962960Y-101240340D01*
X144332960Y-102010340D02*
X144332960Y-101240340D01*
X144332960Y-93930340D02*
X144332960Y-94700340D01*
X137369800Y-87225200D02*
X137369800Y-89965200D01*
X137369800Y-89965200D02*
X143909800Y-89965200D01*
X143909800Y-89965200D02*
X143909800Y-87225200D01*
X143909800Y-87225200D02*
X137369800Y-87225200D01*
X136599800Y-88595200D02*
X137369800Y-88595200D01*
X144679800Y-88595200D02*
X143909800Y-88595200D01*
X140551840Y-94824800D02*
X137811840Y-94824800D01*
X137811840Y-94824800D02*
X137811840Y-101364800D01*
X137811840Y-101364800D02*
X140551840Y-101364800D01*
X140551840Y-101364800D02*
X140551840Y-94824800D01*
X139181840Y-94054800D02*
X139181840Y-94824800D01*
X139181840Y-102134800D02*
X139181840Y-101364800D01*
%TO.C,9 V*%
X168915080Y-101935280D02*
X168915080Y-112095280D01*
X170185080Y-101935280D02*
X162565080Y-101935280D01*
X162565080Y-101935280D02*
X162565080Y-112095280D01*
X162565080Y-112095280D02*
X170185080Y-112095280D01*
X170185080Y-112095280D02*
X170185080Y-101935280D01*
%TO.C,9V*%
X146110960Y-112008920D02*
X135950960Y-112008920D01*
X146110960Y-113278920D02*
X146110960Y-105658920D01*
X146110960Y-105658920D02*
X135950960Y-105658920D01*
X135950960Y-105658920D02*
X135950960Y-113278920D01*
X135950960Y-113278920D02*
X146110960Y-113278920D01*
%TO.C,0.1 uF*%
X156465040Y-109125080D02*
X152825040Y-109125080D01*
X156465040Y-106785080D02*
X152825040Y-106785080D01*
X156465040Y-109125080D02*
X156465040Y-108880080D01*
X156465040Y-107030080D02*
X156465040Y-106785080D01*
X152825040Y-109125080D02*
X152825040Y-108880080D01*
X152825040Y-107030080D02*
X152825040Y-106785080D01*
X133483020Y-100422480D02*
X133483020Y-96782480D01*
X135823020Y-100422480D02*
X135823020Y-96782480D01*
X133483020Y-100422480D02*
X133728020Y-100422480D01*
X135578020Y-100422480D02*
X135823020Y-100422480D01*
X133483020Y-96782480D02*
X133728020Y-96782480D01*
X135578020Y-96782480D02*
X135823020Y-96782480D01*
%TO.C,LM741*%
D11*
X153584803Y-94810020D02*
X153108613Y-94810020D01*
X153108613Y-93810020D01*
X153918137Y-94810020D02*
X153918137Y-93810020D01*
X154251470Y-94524306D01*
X154584803Y-93810020D01*
X154584803Y-94810020D01*
X154965756Y-93810020D02*
X155632422Y-93810020D01*
X155203851Y-94810020D01*
X156441946Y-94143354D02*
X156441946Y-94810020D01*
X156203851Y-93762401D02*
X155965756Y-94476687D01*
X156584803Y-94476687D01*
X157489565Y-94810020D02*
X156918137Y-94810020D01*
X157203851Y-94810020D02*
X157203851Y-93810020D01*
X157108613Y-93952878D01*
X157013375Y-94048116D01*
X156918137Y-94095735D01*
%TO.C,2100 ohm*%
X151943893Y-91665979D02*
X151991512Y-91618360D01*
X152086750Y-91570740D01*
X152324845Y-91570740D01*
X152420083Y-91618360D01*
X152467702Y-91665979D01*
X152515321Y-91761217D01*
X152515321Y-91856455D01*
X152467702Y-91999312D01*
X151896274Y-92570740D01*
X152515321Y-92570740D01*
X153467702Y-92570740D02*
X152896274Y-92570740D01*
X153181988Y-92570740D02*
X153181988Y-91570740D01*
X153086750Y-91713598D01*
X152991512Y-91808836D01*
X152896274Y-91856455D01*
X154086750Y-91570740D02*
X154181988Y-91570740D01*
X154277226Y-91618360D01*
X154324845Y-91665979D01*
X154372464Y-91761217D01*
X154420083Y-91951693D01*
X154420083Y-92189788D01*
X154372464Y-92380264D01*
X154324845Y-92475502D01*
X154277226Y-92523121D01*
X154181988Y-92570740D01*
X154086750Y-92570740D01*
X153991512Y-92523121D01*
X153943893Y-92475502D01*
X153896274Y-92380264D01*
X153848655Y-92189788D01*
X153848655Y-91951693D01*
X153896274Y-91761217D01*
X153943893Y-91665979D01*
X153991512Y-91618360D01*
X154086750Y-91570740D01*
X155039131Y-91570740D02*
X155134369Y-91570740D01*
X155229607Y-91618360D01*
X155277226Y-91665979D01*
X155324845Y-91761217D01*
X155372464Y-91951693D01*
X155372464Y-92189788D01*
X155324845Y-92380264D01*
X155277226Y-92475502D01*
X155229607Y-92523121D01*
X155134369Y-92570740D01*
X155039131Y-92570740D01*
X154943893Y-92523121D01*
X154896274Y-92475502D01*
X154848655Y-92380264D01*
X154801036Y-92189788D01*
X154801036Y-91951693D01*
X154848655Y-91761217D01*
X154896274Y-91665979D01*
X154943893Y-91618360D01*
X155039131Y-91570740D01*
X156705798Y-92570740D02*
X156610560Y-92523121D01*
X156562940Y-92475502D01*
X156515321Y-92380264D01*
X156515321Y-92094550D01*
X156562940Y-91999312D01*
X156610560Y-91951693D01*
X156705798Y-91904074D01*
X156848655Y-91904074D01*
X156943893Y-91951693D01*
X156991512Y-91999312D01*
X157039131Y-92094550D01*
X157039131Y-92380264D01*
X156991512Y-92475502D01*
X156943893Y-92523121D01*
X156848655Y-92570740D01*
X156705798Y-92570740D01*
X157467702Y-92570740D02*
X157467702Y-91570740D01*
X157896274Y-92570740D02*
X157896274Y-92046931D01*
X157848655Y-91951693D01*
X157753417Y-91904074D01*
X157610560Y-91904074D01*
X157515321Y-91951693D01*
X157467702Y-91999312D01*
X158372464Y-92570740D02*
X158372464Y-91904074D01*
X158372464Y-91999312D02*
X158420083Y-91951693D01*
X158515321Y-91904074D01*
X158658179Y-91904074D01*
X158753417Y-91951693D01*
X158801036Y-92046931D01*
X158801036Y-92570740D01*
X158801036Y-92046931D02*
X158848655Y-91951693D01*
X158943893Y-91904074D01*
X159086750Y-91904074D01*
X159181988Y-91951693D01*
X159229607Y-92046931D01*
X159229607Y-92570740D01*
%TO.C,1k ohm*%
X147264380Y-99861428D02*
X147264380Y-100432857D01*
X147264380Y-100147142D02*
X146264380Y-100147142D01*
X146407238Y-100242380D01*
X146502476Y-100337619D01*
X146550095Y-100432857D01*
X147264380Y-99432857D02*
X146264380Y-99432857D01*
X146883428Y-99337619D02*
X147264380Y-99051904D01*
X146597714Y-99051904D02*
X146978666Y-99432857D01*
X147264380Y-97718571D02*
X147216761Y-97813809D01*
X147169142Y-97861428D01*
X147073904Y-97909047D01*
X146788190Y-97909047D01*
X146692952Y-97861428D01*
X146645333Y-97813809D01*
X146597714Y-97718571D01*
X146597714Y-97575714D01*
X146645333Y-97480476D01*
X146692952Y-97432857D01*
X146788190Y-97385238D01*
X147073904Y-97385238D01*
X147169142Y-97432857D01*
X147216761Y-97480476D01*
X147264380Y-97575714D01*
X147264380Y-97718571D01*
X147264380Y-96956666D02*
X146264380Y-96956666D01*
X147264380Y-96528095D02*
X146740571Y-96528095D01*
X146645333Y-96575714D01*
X146597714Y-96670952D01*
X146597714Y-96813809D01*
X146645333Y-96909047D01*
X146692952Y-96956666D01*
X147264380Y-96051904D02*
X146597714Y-96051904D01*
X146692952Y-96051904D02*
X146645333Y-96004285D01*
X146597714Y-95909047D01*
X146597714Y-95766190D01*
X146645333Y-95670952D01*
X146740571Y-95623333D01*
X147264380Y-95623333D01*
X146740571Y-95623333D02*
X146645333Y-95575714D01*
X146597714Y-95480476D01*
X146597714Y-95337619D01*
X146645333Y-95242380D01*
X146740571Y-95194761D01*
X147264380Y-95194761D01*
X138568371Y-86677580D02*
X137996942Y-86677580D01*
X138282657Y-86677580D02*
X138282657Y-85677580D01*
X138187419Y-85820438D01*
X138092180Y-85915676D01*
X137996942Y-85963295D01*
X138996942Y-86677580D02*
X138996942Y-85677580D01*
X139092180Y-86296628D02*
X139377895Y-86677580D01*
X139377895Y-86010914D02*
X138996942Y-86391866D01*
X140711228Y-86677580D02*
X140615990Y-86629961D01*
X140568371Y-86582342D01*
X140520752Y-86487104D01*
X140520752Y-86201390D01*
X140568371Y-86106152D01*
X140615990Y-86058533D01*
X140711228Y-86010914D01*
X140854085Y-86010914D01*
X140949323Y-86058533D01*
X140996942Y-86106152D01*
X141044561Y-86201390D01*
X141044561Y-86487104D01*
X140996942Y-86582342D01*
X140949323Y-86629961D01*
X140854085Y-86677580D01*
X140711228Y-86677580D01*
X141473133Y-86677580D02*
X141473133Y-85677580D01*
X141901704Y-86677580D02*
X141901704Y-86153771D01*
X141854085Y-86058533D01*
X141758847Y-86010914D01*
X141615990Y-86010914D01*
X141520752Y-86058533D01*
X141473133Y-86106152D01*
X142377895Y-86677580D02*
X142377895Y-86010914D01*
X142377895Y-86106152D02*
X142425514Y-86058533D01*
X142520752Y-86010914D01*
X142663609Y-86010914D01*
X142758847Y-86058533D01*
X142806466Y-86153771D01*
X142806466Y-86677580D01*
X142806466Y-86153771D02*
X142854085Y-86058533D01*
X142949323Y-86010914D01*
X143092180Y-86010914D01*
X143187419Y-86058533D01*
X143235038Y-86153771D01*
X143235038Y-86677580D01*
X142004220Y-100166228D02*
X142004220Y-100737657D01*
X142004220Y-100451942D02*
X141004220Y-100451942D01*
X141147078Y-100547180D01*
X141242316Y-100642419D01*
X141289935Y-100737657D01*
X142004220Y-99737657D02*
X141004220Y-99737657D01*
X141623268Y-99642419D02*
X142004220Y-99356704D01*
X141337554Y-99356704D02*
X141718506Y-99737657D01*
X142004220Y-98023371D02*
X141956601Y-98118609D01*
X141908982Y-98166228D01*
X141813744Y-98213847D01*
X141528030Y-98213847D01*
X141432792Y-98166228D01*
X141385173Y-98118609D01*
X141337554Y-98023371D01*
X141337554Y-97880514D01*
X141385173Y-97785276D01*
X141432792Y-97737657D01*
X141528030Y-97690038D01*
X141813744Y-97690038D01*
X141908982Y-97737657D01*
X141956601Y-97785276D01*
X142004220Y-97880514D01*
X142004220Y-98023371D01*
X142004220Y-97261466D02*
X141004220Y-97261466D01*
X142004220Y-96832895D02*
X141480411Y-96832895D01*
X141385173Y-96880514D01*
X141337554Y-96975752D01*
X141337554Y-97118609D01*
X141385173Y-97213847D01*
X141432792Y-97261466D01*
X142004220Y-96356704D02*
X141337554Y-96356704D01*
X141432792Y-96356704D02*
X141385173Y-96309085D01*
X141337554Y-96213847D01*
X141337554Y-96070990D01*
X141385173Y-95975752D01*
X141480411Y-95928133D01*
X142004220Y-95928133D01*
X141480411Y-95928133D02*
X141385173Y-95880514D01*
X141337554Y-95785276D01*
X141337554Y-95642419D01*
X141385173Y-95547180D01*
X141480411Y-95499561D01*
X142004220Y-95499561D01*
%TO.C,9 V*%
X160842699Y-106015280D02*
X160842699Y-106205756D01*
X160890318Y-106300994D01*
X160937937Y-106348613D01*
X161080794Y-106443851D01*
X161271270Y-106491470D01*
X161652222Y-106491470D01*
X161747460Y-106443851D01*
X161795080Y-106396232D01*
X161842699Y-106300994D01*
X161842699Y-106110518D01*
X161795080Y-106015280D01*
X161747460Y-105967660D01*
X161652222Y-105920041D01*
X161414127Y-105920041D01*
X161318889Y-105967660D01*
X161271270Y-106015280D01*
X161223651Y-106110518D01*
X161223651Y-106300994D01*
X161271270Y-106396232D01*
X161318889Y-106443851D01*
X161414127Y-106491470D01*
X161842699Y-107539089D02*
X160842699Y-107872422D01*
X161842699Y-108205756D01*
%TO.C,9V*%
X140411912Y-104841300D02*
X140602388Y-104841300D01*
X140697626Y-104793681D01*
X140745245Y-104746062D01*
X140840483Y-104603205D01*
X140888102Y-104412729D01*
X140888102Y-104031777D01*
X140840483Y-103936539D01*
X140792864Y-103888920D01*
X140697626Y-103841300D01*
X140507150Y-103841300D01*
X140411912Y-103888920D01*
X140364293Y-103936539D01*
X140316674Y-104031777D01*
X140316674Y-104269872D01*
X140364293Y-104365110D01*
X140411912Y-104412729D01*
X140507150Y-104460348D01*
X140697626Y-104460348D01*
X140792864Y-104412729D01*
X140840483Y-104365110D01*
X140888102Y-104269872D01*
X141173817Y-103841300D02*
X141507150Y-104841300D01*
X141840483Y-103841300D01*
%TO.C,0.1 uF*%
X152621230Y-109707460D02*
X152716468Y-109707460D01*
X152811706Y-109755080D01*
X152859325Y-109802699D01*
X152906944Y-109897937D01*
X152954563Y-110088413D01*
X152954563Y-110326508D01*
X152906944Y-110516984D01*
X152859325Y-110612222D01*
X152811706Y-110659841D01*
X152716468Y-110707460D01*
X152621230Y-110707460D01*
X152525992Y-110659841D01*
X152478373Y-110612222D01*
X152430754Y-110516984D01*
X152383135Y-110326508D01*
X152383135Y-110088413D01*
X152430754Y-109897937D01*
X152478373Y-109802699D01*
X152525992Y-109755080D01*
X152621230Y-109707460D01*
X153383135Y-110612222D02*
X153430754Y-110659841D01*
X153383135Y-110707460D01*
X153335516Y-110659841D01*
X153383135Y-110612222D01*
X153383135Y-110707460D01*
X154383135Y-110707460D02*
X153811706Y-110707460D01*
X154097420Y-110707460D02*
X154097420Y-109707460D01*
X154002182Y-109850318D01*
X153906944Y-109945556D01*
X153811706Y-109993175D01*
X156002182Y-110040794D02*
X156002182Y-110707460D01*
X155573611Y-110040794D02*
X155573611Y-110564603D01*
X155621230Y-110659841D01*
X155716468Y-110707460D01*
X155859325Y-110707460D01*
X155954563Y-110659841D01*
X156002182Y-110612222D01*
X156811706Y-110183651D02*
X156478373Y-110183651D01*
X156478373Y-110707460D02*
X156478373Y-109707460D01*
X156954563Y-109707460D01*
X131805400Y-100626289D02*
X131805400Y-100531051D01*
X131853020Y-100435813D01*
X131900639Y-100388194D01*
X131995877Y-100340575D01*
X132186353Y-100292956D01*
X132424448Y-100292956D01*
X132614924Y-100340575D01*
X132710162Y-100388194D01*
X132757781Y-100435813D01*
X132805400Y-100531051D01*
X132805400Y-100626289D01*
X132757781Y-100721527D01*
X132710162Y-100769146D01*
X132614924Y-100816765D01*
X132424448Y-100864384D01*
X132186353Y-100864384D01*
X131995877Y-100816765D01*
X131900639Y-100769146D01*
X131853020Y-100721527D01*
X131805400Y-100626289D01*
X132710162Y-99864384D02*
X132757781Y-99816765D01*
X132805400Y-99864384D01*
X132757781Y-99912003D01*
X132710162Y-99864384D01*
X132805400Y-99864384D01*
X132805400Y-98864384D02*
X132805400Y-99435813D01*
X132805400Y-99150099D02*
X131805400Y-99150099D01*
X131948258Y-99245337D01*
X132043496Y-99340575D01*
X132091115Y-99435813D01*
X132138734Y-97245337D02*
X132805400Y-97245337D01*
X132138734Y-97673908D02*
X132662543Y-97673908D01*
X132757781Y-97626289D01*
X132805400Y-97531051D01*
X132805400Y-97388194D01*
X132757781Y-97292956D01*
X132710162Y-97245337D01*
X132281591Y-96435813D02*
X132281591Y-96769146D01*
X132805400Y-96769146D02*
X131805400Y-96769146D01*
X131805400Y-96292956D01*
%TD*%
M02*
