%TF.GenerationSoftware,KiCad,Pcbnew,(5.1.7)-1*%
%TF.CreationDate,2022-10-27T22:03:01+03:00*%
%TF.ProjectId,wien_osc,7769656e-5f6f-4736-932e-6b696361645f,rev?*%
%TF.SameCoordinates,Original*%
%TF.FileFunction,Copper,L1,Top*%
%TF.FilePolarity,Positive*%
%FSLAX46Y46*%
G04 Gerber Fmt 4.6, Leading zero omitted, Abs format (unit mm)*
G04 Created by KiCad (PCBNEW (5.1.7)-1) date 2022-10-27 22:03:01*
%MOMM*%
%LPD*%
G01*
G04 APERTURE LIST*
%TA.AperFunction,NonConductor*%
%ADD10C,0.150000*%
%TD*%
%TA.AperFunction,ComponentPad*%
%ADD11C,4.400000*%
%TD*%
%TA.AperFunction,SMDPad,CuDef*%
%ADD12R,3.100000X1.600000*%
%TD*%
%TA.AperFunction,ComponentPad*%
%ADD13O,1.600000X1.600000*%
%TD*%
%TA.AperFunction,ComponentPad*%
%ADD14C,1.600000*%
%TD*%
%TA.AperFunction,ComponentPad*%
%ADD15C,3.000000*%
%TD*%
%TA.AperFunction,ComponentPad*%
%ADD16R,3.000000X3.000000*%
%TD*%
%TA.AperFunction,Conductor*%
%ADD17C,0.500000*%
%TD*%
%TA.AperFunction,Conductor*%
%ADD18C,0.250000*%
%TD*%
G04 APERTURE END LIST*
D10*
X137828190Y-120538761D02*
X137828190Y-118538761D01*
X138780571Y-120538761D02*
X138780571Y-118538761D01*
X138780571Y-119300666D02*
X138971047Y-119205428D01*
X139352000Y-119205428D01*
X139542476Y-119300666D01*
X139637714Y-119395904D01*
X139732952Y-119586380D01*
X139732952Y-120157809D01*
X139637714Y-120348285D01*
X139542476Y-120443523D01*
X139352000Y-120538761D01*
X138971047Y-120538761D01*
X138780571Y-120443523D01*
X140590095Y-120538761D02*
X140590095Y-119205428D01*
X140590095Y-119586380D02*
X140685333Y-119395904D01*
X140780571Y-119300666D01*
X140971047Y-119205428D01*
X141161523Y-119205428D01*
X142685333Y-120538761D02*
X142685333Y-119491142D01*
X142590095Y-119300666D01*
X142399619Y-119205428D01*
X142018666Y-119205428D01*
X141828190Y-119300666D01*
X142685333Y-120443523D02*
X142494857Y-120538761D01*
X142018666Y-120538761D01*
X141828190Y-120443523D01*
X141732952Y-120253047D01*
X141732952Y-120062571D01*
X141828190Y-119872095D01*
X142018666Y-119776857D01*
X142494857Y-119776857D01*
X142685333Y-119681619D01*
X143637714Y-120538761D02*
X143637714Y-118538761D01*
X144494857Y-120538761D02*
X144494857Y-119491142D01*
X144399619Y-119300666D01*
X144209142Y-119205428D01*
X143923428Y-119205428D01*
X143732952Y-119300666D01*
X143637714Y-119395904D01*
X145447238Y-120538761D02*
X145447238Y-119205428D01*
X145447238Y-118538761D02*
X145352000Y-118634000D01*
X145447238Y-118729238D01*
X145542476Y-118634000D01*
X145447238Y-118538761D01*
X145447238Y-118729238D01*
X146399619Y-120538761D02*
X146399619Y-119205428D01*
X146399619Y-119395904D02*
X146494857Y-119300666D01*
X146685333Y-119205428D01*
X146971047Y-119205428D01*
X147161523Y-119300666D01*
X147256761Y-119491142D01*
X147256761Y-120538761D01*
X147256761Y-119491142D02*
X147352000Y-119300666D01*
X147542476Y-119205428D01*
X147828190Y-119205428D01*
X148018666Y-119300666D01*
X148113904Y-119491142D01*
X148113904Y-120538761D01*
X150590095Y-120538761D02*
X150590095Y-118538761D01*
X151256761Y-119967333D01*
X151923428Y-118538761D01*
X151923428Y-120538761D01*
X153161523Y-120538761D02*
X152971047Y-120443523D01*
X152875809Y-120348285D01*
X152780571Y-120157809D01*
X152780571Y-119586380D01*
X152875809Y-119395904D01*
X152971047Y-119300666D01*
X153161523Y-119205428D01*
X153447238Y-119205428D01*
X153637714Y-119300666D01*
X153732952Y-119395904D01*
X153828190Y-119586380D01*
X153828190Y-120157809D01*
X153732952Y-120348285D01*
X153637714Y-120443523D01*
X153447238Y-120538761D01*
X153161523Y-120538761D01*
X155542476Y-120538761D02*
X155542476Y-119491142D01*
X155447238Y-119300666D01*
X155256761Y-119205428D01*
X154875809Y-119205428D01*
X154685333Y-119300666D01*
X155542476Y-120443523D02*
X155352000Y-120538761D01*
X154875809Y-120538761D01*
X154685333Y-120443523D01*
X154590095Y-120253047D01*
X154590095Y-120062571D01*
X154685333Y-119872095D01*
X154875809Y-119776857D01*
X155352000Y-119776857D01*
X155542476Y-119681619D01*
X156494857Y-120538761D02*
X156494857Y-118538761D01*
X156685333Y-119776857D02*
X157256761Y-120538761D01*
X157256761Y-119205428D02*
X156494857Y-119967333D01*
X158113904Y-120538761D02*
X158113904Y-118538761D01*
X158304380Y-119776857D02*
X158875809Y-120538761D01*
X158875809Y-119205428D02*
X158113904Y-119967333D01*
X159732952Y-120538761D02*
X159732952Y-119205428D01*
X159732952Y-118538761D02*
X159637714Y-118634000D01*
X159732952Y-118729238D01*
X159828190Y-118634000D01*
X159732952Y-118538761D01*
X159732952Y-118729238D01*
X160399619Y-119205428D02*
X161161523Y-119205428D01*
X160685333Y-118538761D02*
X160685333Y-120253047D01*
X160780571Y-120443523D01*
X160971047Y-120538761D01*
X161161523Y-120538761D01*
X132478952Y-80184761D02*
X132955142Y-82184761D01*
X133336095Y-80756190D01*
X133717047Y-82184761D01*
X134193238Y-80184761D01*
X134955142Y-82184761D02*
X134955142Y-80851428D01*
X134955142Y-80184761D02*
X134859904Y-80280000D01*
X134955142Y-80375238D01*
X135050380Y-80280000D01*
X134955142Y-80184761D01*
X134955142Y-80375238D01*
X136669428Y-82089523D02*
X136478952Y-82184761D01*
X136098000Y-82184761D01*
X135907523Y-82089523D01*
X135812285Y-81899047D01*
X135812285Y-81137142D01*
X135907523Y-80946666D01*
X136098000Y-80851428D01*
X136478952Y-80851428D01*
X136669428Y-80946666D01*
X136764666Y-81137142D01*
X136764666Y-81327619D01*
X135812285Y-81518095D01*
X137621809Y-80851428D02*
X137621809Y-82184761D01*
X137621809Y-81041904D02*
X137717047Y-80946666D01*
X137907523Y-80851428D01*
X138193238Y-80851428D01*
X138383714Y-80946666D01*
X138478952Y-81137142D01*
X138478952Y-82184761D01*
X141621809Y-81137142D02*
X141907523Y-81232380D01*
X142002761Y-81327619D01*
X142098000Y-81518095D01*
X142098000Y-81803809D01*
X142002761Y-81994285D01*
X141907523Y-82089523D01*
X141717047Y-82184761D01*
X140955142Y-82184761D01*
X140955142Y-80184761D01*
X141621809Y-80184761D01*
X141812285Y-80280000D01*
X141907523Y-80375238D01*
X142002761Y-80565714D01*
X142002761Y-80756190D01*
X141907523Y-80946666D01*
X141812285Y-81041904D01*
X141621809Y-81137142D01*
X140955142Y-81137142D01*
X142955142Y-82184761D02*
X142955142Y-80851428D01*
X142955142Y-81232380D02*
X143050380Y-81041904D01*
X143145619Y-80946666D01*
X143336095Y-80851428D01*
X143526571Y-80851428D01*
X144193238Y-82184761D02*
X144193238Y-80851428D01*
X144193238Y-80184761D02*
X144098000Y-80280000D01*
X144193238Y-80375238D01*
X144288476Y-80280000D01*
X144193238Y-80184761D01*
X144193238Y-80375238D01*
X146002761Y-82184761D02*
X146002761Y-80184761D01*
X146002761Y-82089523D02*
X145812285Y-82184761D01*
X145431333Y-82184761D01*
X145240857Y-82089523D01*
X145145619Y-81994285D01*
X145050380Y-81803809D01*
X145050380Y-81232380D01*
X145145619Y-81041904D01*
X145240857Y-80946666D01*
X145431333Y-80851428D01*
X145812285Y-80851428D01*
X146002761Y-80946666D01*
X147812285Y-80851428D02*
X147812285Y-82470476D01*
X147717047Y-82660952D01*
X147621809Y-82756190D01*
X147431333Y-82851428D01*
X147145619Y-82851428D01*
X146955142Y-82756190D01*
X147812285Y-82089523D02*
X147621809Y-82184761D01*
X147240857Y-82184761D01*
X147050380Y-82089523D01*
X146955142Y-81994285D01*
X146859904Y-81803809D01*
X146859904Y-81232380D01*
X146955142Y-81041904D01*
X147050380Y-80946666D01*
X147240857Y-80851428D01*
X147621809Y-80851428D01*
X147812285Y-80946666D01*
X149526571Y-82089523D02*
X149336095Y-82184761D01*
X148955142Y-82184761D01*
X148764666Y-82089523D01*
X148669428Y-81899047D01*
X148669428Y-81137142D01*
X148764666Y-80946666D01*
X148955142Y-80851428D01*
X149336095Y-80851428D01*
X149526571Y-80946666D01*
X149621809Y-81137142D01*
X149621809Y-81327619D01*
X148669428Y-81518095D01*
X152383714Y-80184761D02*
X152764666Y-80184761D01*
X152955142Y-80280000D01*
X153145619Y-80470476D01*
X153240857Y-80851428D01*
X153240857Y-81518095D01*
X153145619Y-81899047D01*
X152955142Y-82089523D01*
X152764666Y-82184761D01*
X152383714Y-82184761D01*
X152193238Y-82089523D01*
X152002761Y-81899047D01*
X151907523Y-81518095D01*
X151907523Y-80851428D01*
X152002761Y-80470476D01*
X152193238Y-80280000D01*
X152383714Y-80184761D01*
X154002761Y-82089523D02*
X154193238Y-82184761D01*
X154574190Y-82184761D01*
X154764666Y-82089523D01*
X154859904Y-81899047D01*
X154859904Y-81803809D01*
X154764666Y-81613333D01*
X154574190Y-81518095D01*
X154288476Y-81518095D01*
X154098000Y-81422857D01*
X154002761Y-81232380D01*
X154002761Y-81137142D01*
X154098000Y-80946666D01*
X154288476Y-80851428D01*
X154574190Y-80851428D01*
X154764666Y-80946666D01*
X156574190Y-82089523D02*
X156383714Y-82184761D01*
X156002761Y-82184761D01*
X155812285Y-82089523D01*
X155717047Y-81994285D01*
X155621809Y-81803809D01*
X155621809Y-81232380D01*
X155717047Y-81041904D01*
X155812285Y-80946666D01*
X156002761Y-80851428D01*
X156383714Y-80851428D01*
X156574190Y-80946666D01*
X157431333Y-82184761D02*
X157431333Y-80851428D01*
X157431333Y-80184761D02*
X157336095Y-80280000D01*
X157431333Y-80375238D01*
X157526571Y-80280000D01*
X157431333Y-80184761D01*
X157431333Y-80375238D01*
X158669428Y-82184761D02*
X158478952Y-82089523D01*
X158383714Y-81899047D01*
X158383714Y-80184761D01*
X159717047Y-82184761D02*
X159526571Y-82089523D01*
X159431333Y-81899047D01*
X159431333Y-80184761D01*
X161336095Y-82184761D02*
X161336095Y-81137142D01*
X161240857Y-80946666D01*
X161050380Y-80851428D01*
X160669428Y-80851428D01*
X160478952Y-80946666D01*
X161336095Y-82089523D02*
X161145619Y-82184761D01*
X160669428Y-82184761D01*
X160478952Y-82089523D01*
X160383714Y-81899047D01*
X160383714Y-81708571D01*
X160478952Y-81518095D01*
X160669428Y-81422857D01*
X161145619Y-81422857D01*
X161336095Y-81327619D01*
X162002761Y-80851428D02*
X162764666Y-80851428D01*
X162288476Y-80184761D02*
X162288476Y-81899047D01*
X162383714Y-82089523D01*
X162574190Y-82184761D01*
X162764666Y-82184761D01*
X163717047Y-82184761D02*
X163526571Y-82089523D01*
X163431333Y-81994285D01*
X163336095Y-81803809D01*
X163336095Y-81232380D01*
X163431333Y-81041904D01*
X163526571Y-80946666D01*
X163717047Y-80851428D01*
X164002761Y-80851428D01*
X164193238Y-80946666D01*
X164288476Y-81041904D01*
X164383714Y-81232380D01*
X164383714Y-81803809D01*
X164288476Y-81994285D01*
X164193238Y-82089523D01*
X164002761Y-82184761D01*
X163717047Y-82184761D01*
X165240857Y-82184761D02*
X165240857Y-80851428D01*
X165240857Y-81232380D02*
X165336095Y-81041904D01*
X165431333Y-80946666D01*
X165621809Y-80851428D01*
X165812285Y-80851428D01*
X163536285Y-112648857D02*
X163536285Y-110363142D01*
X162179142Y-104100285D02*
X164464857Y-104100285D01*
X163322000Y-105243142D02*
X163322000Y-102957428D01*
X137287142Y-106386285D02*
X139572857Y-106386285D01*
X138430000Y-107529142D02*
X138430000Y-105243428D01*
X142621142Y-106894285D02*
X144906857Y-106894285D01*
D11*
%TO.P,H4,1*%
%TO.N,N/C*%
X172720000Y-117094000D03*
%TD*%
D12*
%TO.P,LM741,8*%
%TO.N,Net-(U1-Pad8)*%
X159720280Y-96687640D03*
%TO.P,LM741,4*%
%TO.N,Net-(J1-Pad2)*%
X150830280Y-104307640D03*
%TO.P,LM741,7*%
%TO.N,Net-(J2-Pad2)*%
X159720280Y-99227640D03*
%TO.P,LM741,3*%
%TO.N,Net-(C1-Pad1)*%
X150830280Y-101767640D03*
%TO.P,LM741,6*%
%TO.N,Net-(C2-Pad1)*%
X159720280Y-101767640D03*
%TO.P,LM741,2*%
%TO.N,Net-(R2-Pad1)*%
X150830280Y-99227640D03*
%TO.P,LM741,5*%
%TO.N,Net-(U1-Pad5)*%
X159720280Y-104307640D03*
%TO.P,LM741,1*%
%TO.N,Net-(U1-Pad1)*%
X150830280Y-96687640D03*
%TD*%
D13*
%TO.P,2100 ohm,2*%
%TO.N,Net-(R2-Pad1)*%
X150530560Y-89748360D03*
D14*
%TO.P,2100 ohm,1*%
%TO.N,Net-(C2-Pad1)*%
X160690560Y-89748360D03*
%TD*%
D13*
%TO.P,1k ohm,2*%
%TO.N,Net-(C1-Pad1)*%
X144332960Y-92890340D03*
D14*
%TO.P,1k ohm,1*%
%TO.N,Net-(C2-Pad2)*%
X144332960Y-103050340D03*
%TD*%
D13*
%TO.P,1k ohm,2*%
%TO.N,GND*%
X145719800Y-88595200D03*
D14*
%TO.P,1k ohm,1*%
%TO.N,Net-(R2-Pad1)*%
X135559800Y-88595200D03*
%TD*%
D13*
%TO.P,1k ohm,2*%
%TO.N,Net-(C1-Pad1)*%
X139181840Y-103174800D03*
D14*
%TO.P,1k ohm,1*%
%TO.N,GND*%
X139181840Y-93014800D03*
%TD*%
D15*
%TO.P,9 V,2*%
%TO.N,Net-(J2-Pad2)*%
X166375080Y-104475280D03*
D16*
%TO.P,9 V,1*%
%TO.N,GND*%
X166375080Y-109555280D03*
%TD*%
D15*
%TO.P,9V,2*%
%TO.N,Net-(J1-Pad2)*%
X143570960Y-109468920D03*
D16*
%TO.P,9V,1*%
%TO.N,GND*%
X138490960Y-109468920D03*
%TD*%
D11*
%TO.P,H3,1*%
%TO.N,N/C*%
X172500000Y-83954620D03*
%TD*%
%TO.P,H2,1*%
%TO.N,N/C*%
X125000000Y-116906040D03*
%TD*%
%TO.P,H1,1*%
%TO.N,N/C*%
X125000000Y-83868260D03*
%TD*%
D14*
%TO.P,0.1 uF,2*%
%TO.N,Net-(C2-Pad2)*%
X153395040Y-107955080D03*
%TO.P,0.1 uF,1*%
%TO.N,Net-(C2-Pad1)*%
X155895040Y-107955080D03*
%TD*%
%TO.P,0.1 uF,2*%
%TO.N,GND*%
X134653020Y-97352480D03*
%TO.P,0.1 uF,1*%
%TO.N,Net-(C1-Pad1)*%
X134653020Y-99852480D03*
%TD*%
D17*
%TO.N,GND*%
X166375080Y-109555280D02*
X159141160Y-109555280D01*
X138490960Y-109468920D02*
X138490960Y-112128300D01*
X138490960Y-112128300D02*
X139359640Y-112996980D01*
X155699460Y-112996980D02*
X159141160Y-109555280D01*
X139359640Y-112996980D02*
X155699460Y-112996980D01*
D18*
X138990700Y-93014800D02*
X139181840Y-93014800D01*
X134653020Y-97352480D02*
X138990700Y-93014800D01*
X141300200Y-93014800D02*
X145719800Y-88595200D01*
X139181840Y-93014800D02*
X141300200Y-93014800D01*
D17*
X138490960Y-109468920D02*
X135651240Y-109468920D01*
X133403019Y-98602481D02*
X134653020Y-97352480D01*
X133403019Y-107220699D02*
X133403019Y-98602481D01*
X135651240Y-109468920D02*
X133403019Y-107220699D01*
D18*
%TO.N,Net-(C1-Pad1)*%
X144332960Y-92890340D02*
X141312900Y-95910400D01*
X141312900Y-101043740D02*
X139181840Y-103174800D01*
X146670620Y-99407980D02*
X141312900Y-99407980D01*
X149030280Y-101767640D02*
X146670620Y-99407980D01*
X150830280Y-101767640D02*
X149030280Y-101767640D01*
X141312900Y-99407980D02*
X141312900Y-101043740D01*
X141312900Y-95910400D02*
X141312900Y-99407980D01*
X137975340Y-103174800D02*
X134653020Y-99852480D01*
X139181840Y-103174800D02*
X137975340Y-103174800D01*
%TO.N,Net-(C2-Pad2)*%
X153395040Y-103937398D02*
X153395040Y-107955080D01*
X152507982Y-103050340D02*
X153395040Y-103937398D01*
X144332960Y-103050340D02*
X152507982Y-103050340D01*
%TO.N,Net-(C2-Pad1)*%
X157845279Y-101692639D02*
X157920280Y-101767640D01*
X157845279Y-92593641D02*
X157845279Y-101692639D01*
X160690560Y-89748360D02*
X157845279Y-92593641D01*
X157920280Y-101767640D02*
X159720280Y-101767640D01*
X155895040Y-103792880D02*
X157920280Y-101767640D01*
X155895040Y-107955080D02*
X155895040Y-103792880D01*
D17*
%TO.N,Net-(J1-Pad2)*%
X148732240Y-104307640D02*
X150830280Y-104307640D01*
X143570960Y-109468920D02*
X148732240Y-104307640D01*
D18*
%TO.N,Net-(R2-Pad1)*%
X148239480Y-92039440D02*
X148239480Y-99230180D01*
X150530560Y-89748360D02*
X148239480Y-92039440D01*
X135559800Y-88595200D02*
X135559800Y-87134700D01*
X147916900Y-87134700D02*
X150530560Y-89748360D01*
X135559800Y-87134700D02*
X147916900Y-87134700D01*
X148242020Y-99227640D02*
X148239480Y-99230180D01*
X150830280Y-99227640D02*
X148242020Y-99227640D01*
D17*
%TO.N,Net-(J2-Pad2)*%
X166375080Y-104475280D02*
X166375080Y-102275640D01*
X163327080Y-99227640D02*
X159720280Y-99227640D01*
X166375080Y-102275640D02*
X163327080Y-99227640D01*
%TD*%
M02*
